<svg width="1400" height="400" viewBox="0 0 1400 400" fill="none" xmlns="http://www.w3.org/2000/svg">
<rect x="1365" y="70" width="35" height="260" fill="#161616"/>
<rect y="70" width="35" height="260" fill="#161616"/>
<rect x="70" y="35" width="35" height="1260" transform="rotate(-90 70 35)" fill="#161616"/>
<rect x="70" y="400" width="35" height="1260" transform="rotate(-90 70 400)" fill="#161616"/>
<path fill-rule="evenodd" clip-rule="evenodd" d="M1330 70H70V330H1330V70ZM239.684 234.755H218.663V259.979C218.663 262.851 219.21 265.585 220.304 268.183C221.466 270.712 222.97 272.934 224.815 274.848C226.729 276.762 228.951 278.266 231.48 279.359C234.078 280.453 236.812 281 239.684 281H299.156C302.027 281 304.728 280.453 307.257 279.359C309.854 278.266 312.076 276.762 313.922 274.848C315.836 272.934 317.34 270.712 318.434 268.183C319.596 265.585 320.177 262.851 320.177 259.979V133.959H299.156V259.979H239.684V234.755ZM479.83 281L423.126 133.959H402.105L345.401 281H366.422L379.444 247.162H445.787L458.81 281H479.83ZM437.687 226.142H387.442L412.667 161.337L437.687 226.142ZM526.075 173.231L580.934 281H587.188L642.047 173.231V281H662.965V133.959H640.099L584.01 244.701L528.023 133.959H505.055V281H526.075V173.231ZM822.721 281L766.017 133.959H744.996L688.292 281H709.312L722.335 247.162H788.678L801.7 281H822.721ZM780.577 226.142H730.333L755.558 161.337L780.577 226.142ZM937.872 221.527C955.372 218.656 964.122 206.967 964.122 186.459V169.745C964.122 145.888 952.228 133.959 928.438 133.959H847.945V281H868.966V222.245H915.006L942.281 281H965.558L937.872 221.527ZM927.311 201.225H868.966V154.979H927.311C932.916 154.979 936.949 156.21 939.41 158.671C941.871 161.132 943.102 165.165 943.102 170.771V185.434C943.102 191.039 941.871 195.072 939.41 197.533C936.949 199.994 932.916 201.225 927.311 201.225ZM1020.31 281V133.959H999.293V281H1020.31ZM1059.79 146.879C1058.7 149.408 1058.15 152.108 1058.15 154.979V259.979C1058.15 262.851 1058.7 265.585 1059.79 268.183C1060.88 270.712 1062.39 272.934 1064.3 274.848C1066.22 276.762 1068.44 278.266 1070.97 279.359C1073.57 280.453 1076.3 281 1079.17 281H1158.95C1161.82 281 1164.52 280.453 1167.05 279.359C1169.64 278.266 1171.9 276.762 1173.81 274.848C1175.73 272.934 1177.23 270.712 1178.33 268.183C1179.42 265.585 1179.97 262.851 1179.97 259.979V241.112H1158.95V259.979H1079.17V154.979H1158.95V173.949H1179.97V154.979C1179.97 152.108 1179.42 149.408 1178.33 146.879C1177.23 144.281 1175.73 142.06 1173.81 140.214C1171.9 138.3 1169.64 136.796 1167.05 135.702C1164.52 134.54 1161.82 133.959 1158.95 133.959H1079.17C1076.3 133.959 1073.57 134.54 1070.97 135.702C1068.44 136.796 1066.22 138.3 1064.3 140.214C1062.39 142.06 1060.88 144.281 1059.79 146.879Z" fill="#161616"/>
</svg>
